<?xml version="1.0" encoding="UTF-8"?>
<svg id="logo_finale_kopie" data-name="logo finale kopie" xmlns="http://www.w3.org/2000/svg" viewBox="0 0 500 500">
  <path d="M135.08,202.2v53.92c0,2.67.16,4.68.48,6.04.32,1.36,1,2.28,2.04,2.76,1.04.48,2.57.77,4.6.88v2.8h-22.08v-2.8c2.13-.11,3.73-.4,4.8-.88,1.07-.48,1.79-1.36,2.16-2.64.37-1.28.56-3.15.56-5.6v-34.48c0-2.88-.04-5.29-.12-7.24-.08-1.95-.2-3.27-.36-3.96-.27-1.23-.89-2.05-1.88-2.48-.99-.43-2.76-.64-5.32-.64v-2.72l15.12-2.96Z"/>
  <path d="M301.12,245.64v10.16c0,2.93.12,5.09.36,6.48.24,1.39.83,2.28,1.76,2.68.93.4,2.41.68,4.44.84v2.8h-21.28v-2.8c2.08-.16,3.6-.44,4.56-.84.96-.4,1.59-1.25,1.88-2.56.29-1.31.44-3.29.44-5.96v-10.24c0-3.04-.04-5.59-.12-7.64-.08-2.05-.23-3.43-.44-4.12-.27-1.39-.8-2.27-1.6-2.64-.8-.37-2.43-.56-4.88-.56v-2.8l13.04-3.04,1.04,8h.4c2.4-2.72,4.92-4.73,7.56-6.04,2.64-1.31,5.56-1.96,8.76-1.96,3.36,0,6.2.69,8.52,2.08,2.32,1.39,3.91,3.33,4.76,5.84h.32c1.97-2.51,4.39-4.45,7.24-5.84,2.85-1.39,5.85-2.08,9-2.08,2.51,0,4.79.41,6.84,1.24,2.05.83,3.61,1.96,4.68,3.4.96,1.23,1.64,2.84,2.04,4.84.4,2,.6,4.73.6,8.2v12.72c0,2.93.13,5.08.4,6.44.27,1.36.87,2.25,1.8,2.68.93.43,2.41.72,4.44.88v2.8h-21.28v-2.8c2.03-.11,3.52-.37,4.48-.8.96-.43,1.59-1.29,1.88-2.6.29-1.31.44-3.29.44-5.96v-10.08c0-6.13-.69-10.43-2.08-12.88-1.39-2.45-3.81-3.68-7.28-3.68-2.29,0-4.48.65-6.56,1.96-2.08,1.31-3.71,3.05-4.88,5.24-.37.69-.65,1.39-.84,2.08-.19.69-.32,1.53-.4,2.52-.08.99-.12,2.33-.12,4.04v10.16c0,2.93.13,5.08.4,6.44.27,1.36.87,2.25,1.8,2.68.93.43,2.44.72,4.52.88v2.8h-21.28v-2.8c2.03-.16,3.52-.44,4.48-.84.96-.4,1.57-1.25,1.84-2.56.27-1.31.4-3.29.4-5.96v-10.08c0-4.16-.29-7.44-.88-9.84-.59-2.4-1.55-4.12-2.88-5.16-1.33-1.04-3.15-1.56-5.44-1.56s-4.59.65-6.72,1.96c-2.13,1.31-3.73,3.05-4.8,5.24-.37.69-.65,1.39-.84,2.08-.19.69-.32,1.53-.4,2.52-.08.99-.12,2.33-.12,4.04Z"/>
  <path d="M261.56,231.6c8.27,0,15,6.73,15,15s-6.73,15-15,15h-46.55c-8.27,0-15-6.73-15-15s6.73-15,15-15h46.55M261.56,224.6h-46.55c-12.15,0-22,9.85-22,22h0c0,12.15,9.85,22,22,22h46.55c12.15,0,22-9.85,22-22h0c0-12.15-9.85-22-22-22h0Z"/>
  <path d="M168.26,231.6c8.27,0,15,6.73,15,15s-6.73,15-15,15h-1.25c-8.27,0-15-6.73-15-15s6.73-15,15-15h1.25M168.26,224.6h-1.25c-12.15,0-22,9.85-22,22h0c0,12.15,9.85,22,22,22h1.25c12.15,0,22-9.85,22-22h0c0-12.15-9.85-22-22-22h0Z"/>
</svg>